<?xml version="1.0" encoding="utf-8"?>
<!-- Generator: Adobe Illustrator 19.2.1, SVG Export Plug-In . SVG Version: 6.00 Build 0)  -->
<svg version="1.1" id="Layer_1" xmlns="http://www.w3.org/2000/svg" xmlns:xlink="http://www.w3.org/1999/xlink" x="0px" y="0px"
	 viewBox="0 0 951.9 322.3" style="enable-background:new 0 0 951.9 322.3;" xml:space="preserve">
<g>
	<path d="M460.5,179.1c-27.8,0-53.2,16.3-64.7,41.6l-2.7,7c-1.3,3.9-2.3,8-2.9,12.1H390l-0.4,4.5c0,0.3,0,0.7-0.1,1l0,0.4l0,0.3
		c0,0.3,0,0.5,0,0.8c-0.1,1.1-0.1,2.2-0.1,3.3v0.1c0,39.2,31.9,71.1,71.1,71.1c19,0,36.9-7.4,50.3-20.9l0.3-0.3v16.2v4.9h4.9h10.7
		h4.9v-4.9v-66.2C531.6,211,499.7,179.1,460.5,179.1z M460.5,300.6c-27.8,0-50.4-22.6-50.4-50.4c0-0.9,0-1.7,0.1-2.6l0-0.1l0-0.2
		c0.4-8.1,2.9-16.1,7-23c0.1-0.2,0.3-0.5,0.4-0.7l0.1-0.1c1.1-1.8,2.3-3.5,3.6-5.1l0.2-0.2l0.2-0.3c0.4-0.5,0.9-1.1,1.4-1.6l0.2-0.2
		l0.2-0.2c1.5-1.7,3.2-3.3,4.9-4.7l0.2-0.1c9-7.4,20.3-11.5,32-11.5c13.5,0,26.1,5.3,35.7,14.8l1.1,1.1c8.8,9.4,13.7,21.6,13.7,34.5
		C510.9,278,488.3,300.6,460.5,300.6z"/>
	<path d="M303.9,179.1c-25.8,0-48.5,13.9-60.9,34.5c-12.4-20.7-35-34.5-60.8-34.5c-39.2,0-71.1,31.9-71.1,71.1v66.2v4.9h4.9h10.7
		h4.9v-4.9v-61.3h0.2v-4.9c0-27.8,22.6-50.4,50.4-50.4c27.4,0,49.8,22,50.4,49.2l0,1.2v66.2v4.9h0.2h4.7h0.2h10.4h0.2h4.7h0.2v-4.9
		v-61.3h0.2v-4.9c0-27.8,22.6-50.4,50.4-50.4c27.4,0,49.8,22,50.4,49.2l0,1.2v66.2v4.9h4.9h10.7h4.9v-4.9v-66.2
		C374.8,211,343,179.1,303.9,179.1z"/>
	<path d="M546.5,250.2v66.2v4.9h4.9H562h4.9v-4.9v-61.3h0.2v-4.9c0-27.8,22.6-50.3,50.3-50.4v-20.7
		C578.3,179.2,546.5,211.1,546.5,250.2z"/>
	<path d="M789.2,178.8c-14.8,0-28.7,4.4-40.6,12.7v-62.6h-30.5v120.9c0,39.2,31.9,71,71,71c27.8,0,53.1-16.3,64.7-41.6
		c0.3-0.6,6.3-13.7,6.3-26.3c0-0.5,0-1,0-1.5c0-0.6,0-1.2,0-1.8C860.2,210.6,828.3,178.8,789.2,178.8z M746.2,207L746.2,207
		L746.2,207L746.2,207z M829.5,251.8l0,0.3c-0.4,6.5-2.3,12.9-5.6,18.4l-1.3,2.1c-0.2,0.4-0.5,0.7-0.8,1.1l-1.5,1.9
		c-0.4,0.4-0.7,0.9-1.2,1.4l-2.1,2.3l-5.5,4.6c-0.8,0.7-1.7,1.3-2.6,1.7c-17.4,8.4-36,5-48.2-7.2l-0.9-0.9
		c-13.8-14.7-15.5-38.3,0.4-57.1c0.6-0.8,1.4-1.5,2.2-2c32.4-22.2,67.2,0.6,67.2,31.5C829.6,250.5,829.6,251.2,829.5,251.8z"/>
	<path d="M946,178.8c-39.1,0.1-70.9,31.9-70.9,71v71h30.5v-60.7h0.2v-10.4c0-22.2,18.1-40.3,40.3-40.4l5.8,0v-30.7L946,178.8z"/>
	<path d="M652.8,128.8h-20.5v50.3v20.7v50.4c0,39.2,31.8,71,71,71.1v-20.7c-27.7-0.1-50.3-22.6-50.3-50.4v-4.9h-0.2v-45.5h50.5
		v-20.7h-50.5V128.8z"/>
	<path d="M56.9,240.2c-12.5-5.3-20.7-10-24.6-14c-3.8-3.8-5.7-7.8-5.7-12c0-4.8,2.3-8.9,7-12.5c4.3-3.3,9.7-4.9,16.9-4.9
		c11,0,21.3,4.1,31.7,12.5l0.3,0.3l12.7-13l-0.4-0.3c-14.5-11.7-27.9-16.9-43.3-16.9c-12.7,0-23.4,3.4-31.7,10.1
		c-8.4,6.8-12.6,15.4-12.6,25.6c0,7.8,2.7,14.9,7.9,21c5.2,6.1,15.2,12.3,29.6,18.5c13.3,5.7,22,10.4,25.8,14.1
		c3.8,3.8,5.6,8,5.6,12.8c0,5.9-2.8,10.8-8.5,15.2c-5.3,4-12.4,6.1-21.2,6.1c-11.8,0-22.5-4.7-32.7-14.2l-0.3-0.3L0,301.3l0.3,0.3
		c5.5,5.8,12,10.2,20.7,13.6c8.4,3.4,17.4,5.1,26.6,5.1c13.9,0,25.6-3.9,34.9-11.5c9.3-7.6,14-17.1,14-28.2c0-7.8-2.8-15-8.2-21.3
		C82.8,253.2,72.2,246.8,56.9,240.2z"/>
	<path d="M821,164.2h30.6C819.8,69.4,730.3,1.1,624.8,1.1c-105.5,0-195,68.3-226.8,163.1h20.7c31-85.3,110.1-138.8,206.1-138.8
		C720.8,25.4,789.9,78.9,821,164.2z"/>
</g>
</svg>
